<svg width="300" height="250" xmlns="http://www.w3.org/2000/svg">
	<ellipse id="svg_6" cy="85.978555" cx="0.750009" fill-opacity="null" stroke-opacity="null" stroke-width="1.5" stroke="#000" fill="none" />
	<path stroke="white" id="svg_23" d="m67.890519,147.491292l16.263337,-70.377142l65.845984,-31.320817l65.846001,31.320817l16.263634,70.377142l-45.568146,56.438461l-73.082972,0l-45.567838,-56.438461z" fill-opacity="null" stroke-opacity="null" stroke-width="5" fill="transparent" />
	<path stroke="white" id="svg_26" d="m126.58681,112.62929l53.45429,-0.08974c-9.87177,25.02895 -5.2122,42.88864 7.84294,52.45385l-77.74072,-0.10169c-15.05786,-19.76613 2.47094,-45.43464 16.44349,-52.26242z" stroke-opacity="null" stroke-width="0" fill="white" />
	<path stroke="white" id="svg_29" d="m153.013779,191.443714l-2.002467,-114.933857l-3.096227,0l-0.92887,114.933857l5.168688,0z" stroke-opacity="null" stroke-width="0" fill="white" />
	<path stroke="white" transform="rotate(180 150,102.28341674804689) " id="svg_30" d="m138.33217,110.660337l4.375436,-16.75384l14.584787,0l4.375434,16.75384l-23.335658,0z" stroke-opacity="null" stroke-width="0" fill="white" />
	<path stroke="white" id="svg_31" d="m147.989128,75.367173c13.74647,-6.85168 27.44578,18.85556 41.19224,12.00391l0.04713,0.71218c-15.47058,6.4685 -27.4929,-7.23479 -41.23937,-0.38314l0,-12.33295z" stroke-opacity="null" stroke-width="0" fill="white" />
</svg>